<?xml version="1.0" encoding="utf-8"?>
<!-- Generator: Adobe Illustrator 27.5.0, SVG Export Plug-In . SVG Version: 6.00 Build 0)  -->
<svg version="1.1" xmlns="http://www.w3.org/2000/svg" xmlns:xlink="http://www.w3.org/1999/xlink" x="0px" y="0px"
	 viewBox="0 0 500 500" style="enable-background:new 0 0 500 500;" xml:space="preserve">
<g id="BACKGROUND">
	<g>
		<rect style="fill:#FFFFFF;" width="500" height="500"/>
		<g>
			<polygon style="fill:#ACAABD;" points="148.57,401.036 139.937,419.688 138.92,419.688 144.883,401.036 			"/>
			<polygon style="fill:#ACAABD;" points="138.796,401.036 130.164,419.688 129.147,419.688 135.11,401.036 			"/>
			<polygon style="fill:#ACAABD;" points="148.57,401.036 157.202,419.688 158.218,419.688 152.256,401.036 			"/>
			<polygon style="fill:#ACAABD;" points="158.343,401.036 166.975,419.688 167.992,419.688 162.029,401.036 			"/>
		</g>
		<path style="fill:#E9E6FF;" d="M168.758,409.836h-40.377c-3.417,0-6.212-2.795-6.212-6.212v-36.464
			c0-3.417,2.795-6.212,6.212-6.212h40.377c3.417,0,6.212,2.795,6.212,6.212v36.464C174.97,407.041,172.174,409.836,168.758,409.836
			z"/>
		<path style="fill:#F8F7FF;" d="M146.303,403.624v-36.464c0-3.417-2.795-6.212-6.212-6.212h-11.71
			c-3.416,0-6.212,2.795-6.212,6.212v36.464c0,3.417,2.795,6.212,6.212,6.212h11.71
			C143.508,409.836,146.303,407.041,146.303,403.624z"/>
		<g>
			<path style="fill:#ACAABD;" d="M122.169,371.271c8.8-0.122,17.6-0.091,26.4-0.141c8.8,0.05,17.6,0.019,26.4,0.141
				c-8.8,0.122-17.6,0.091-26.4,0.141C139.769,371.362,130.969,371.393,122.169,371.271z"/>
		</g>
		<g>
			<path style="fill:#ACAABD;" d="M122.169,402.589c8.8-0.122,17.6-0.091,26.4-0.141c8.8,0.05,17.6,0.019,26.4,0.141
				c-8.8,0.122-17.6,0.091-26.4,0.141C139.769,402.68,130.969,402.711,122.169,402.589z"/>
		</g>
		<g>
			<g>
				<path style="fill:none;stroke:#E66306;stroke-width:2.8347;stroke-miterlimit:10;" d="M361.45,317.285
					c0,0,3.788,13.433,1.269,22.995c-2.519,9.562,4.628,28.064,4.628,28.064"/>
				<path style="fill:#E66306;" d="M361.8,333.268c4.264,3.475,31.377-8.222,24.303-20.965
					C379.028,299.56,352.162,325.414,361.8,333.268z"/>
				<path style="fill:#E66306;" d="M362.599,348.469c0,0-12.638-17.25-25.007-8.75C325.224,348.219,366.974,363.969,362.599,348.469
					z"/>
				<path style="fill:#E66306;" d="M380.147,343.513c0,0-10.041-8.346-16.108-1.48C357.972,348.899,385.034,352.046,380.147,343.513
					z"/>
				<path style="fill:#E66306;" d="M357.802,326.096c0,0-17.984-16.004-26.778-5.85
					C322.229,330.401,367.496,340.194,357.802,326.096z"/>
				<path style="fill:#E66306;" d="M377.944,287.079c5.919,5.919-11.531,28.25-20.083,22.125
					C349.31,303.079,371.136,280.272,377.944,287.079z"/>
				<path style="fill:#F67406;" d="M352.569,346.756c-3.99-7.521-44.67-12.5-46.716,0
					C303.807,359.256,357.343,355.756,352.569,346.756z"/>
				<path style="fill:#F67406;" d="M360.951,354.871c0-4.865,39.684-16.885,42.889,0
					C407.046,371.756,360.951,362.237,360.951,354.871z"/>
				<path style="fill:#F67406;" d="M357.899,337.756c3.746-3.746-13.75-21-21.25-15.75S351.524,344.131,357.899,337.756z"/>
				<path style="fill:#F67406;" d="M363.149,335.506c1.203,6.148,38.25-3.5,35.75-11.5S360.899,324.006,363.149,335.506z"/>
				<path style="fill:#F67406;" d="M358.418,321.021c9.378-2.597,5.896-26.764-9.312-23.764S348.438,323.785,358.418,321.021z"/>
				<path style="fill:none;stroke:#F67406;stroke-width:2.8347;stroke-miterlimit:10;" d="M357.149,316.006
					c0,0,3.788,14.75,1.269,25.25c-2.519,10.5,4.628,30.817,4.628,30.817"/>
				<path style="fill:none;stroke:#F67406;stroke-width:1.4173;stroke-miterlimit:10;" d="M367.524,333.381
					c0,0-6.69,0.15-8.47,4.075"/>
				<path style="fill:none;stroke:#F67406;stroke-width:1.4173;stroke-miterlimit:10;" d="M357.549,351.006
					c0,0-1.71-3.255-8.042-4.003"/>
				<path style="fill:none;stroke:#F67406;stroke-width:1.4173;stroke-miterlimit:10;" d="M358.399,356.506c0-2.875,6-1.885,6-1.885
					"/>
				<g>
					<path style="fill:#002E5C;" d="M349.107,299.625c2.053,2.872,3.589,6.078,4.991,9.308c0.68,1.627,1.312,3.274,1.89,4.94
						c0.29,0.832,0.551,1.675,0.826,2.511l0.735,2.539c-1.141-3.333-2.332-6.644-3.712-9.879c-0.678-1.622-1.409-3.221-2.185-4.799
						C350.864,302.675,350.056,301.109,349.107,299.625z"/>
				</g>
				<g>
					<path style="fill:#002E5C;" d="M356.811,300.756c-0.809,2.274-2.54,4.337-4.878,5.216c-1.16,0.403-2.41,0.617-3.633,0.461
						c-0.616-0.015-1.205-0.217-1.805-0.318c-0.582-0.183-1.15-0.408-1.721-0.609c0.588,0.158,1.167,0.337,1.754,0.474
						c0.599,0.071,1.185,0.248,1.788,0.235c1.199,0.109,2.403-0.1,3.516-0.508c1.122-0.404,2.125-1.108,2.957-1.97
						C355.613,302.869,356.312,301.862,356.811,300.756z"/>
				</g>
				<g>
					<path style="fill:#002E5C;" d="M360.098,308.788c-1.231,2.042-3.178,3.761-5.539,4.423c-1.173,0.313-2.434,0.371-3.611,0.068
						c-0.604-0.089-1.153-0.362-1.72-0.564c-0.547-0.25-1.053-0.586-1.576-0.872c1.073,0.531,2.166,1.036,3.339,1.223
						c1.155,0.251,2.366,0.195,3.493-0.128c1.138-0.296,2.195-0.872,3.134-1.592C358.549,310.616,359.4,309.762,360.098,308.788z"/>
				</g>
				<g>
					<path style="fill:#002E5C;" d="M356.274,335.419c-3.268-0.788-6.369-2.216-9.214-4.011c-1.419-0.907-2.773-1.92-4.013-3.06
						c-1.272-1.107-2.364-2.399-3.398-3.717c1.117,1.253,2.256,2.483,3.543,3.554c1.26,1.097,2.601,2.103,4.021,2.984
						c1.401,0.91,2.871,1.714,4.386,2.422C353.114,334.298,354.668,334.932,356.274,335.419z"/>
				</g>
				<g>
					<path style="fill:#002E5C;" d="M344.149,324.06c0.306,1.273,0.135,2.772-0.786,3.826c-0.47,0.496-1.068,0.887-1.727,1.05
						c-0.32,0.111-0.662,0.122-0.989,0.185l-0.998-0.006l0.98-0.132c0.314-0.09,0.644-0.124,0.94-0.255
						c0.616-0.198,1.163-0.561,1.582-1.031c0.434-0.463,0.702-1.064,0.853-1.69C344.147,325.38,344.203,324.719,344.149,324.06z"/>
				</g>
				<g>
					<path style="fill:#002E5C;" d="M349.107,326.588c0.193,0.779,0.459,1.549,0.551,2.362c0.107,0.806,0.091,1.646-0.148,2.446
						c-0.251,0.794-0.796,1.505-1.516,1.916c-0.71,0.454-1.55,0.545-2.344,0.619c0.783-0.177,1.585-0.344,2.229-0.804
						c0.653-0.426,1.144-1.068,1.362-1.817c0.246-0.741,0.262-1.547,0.203-2.338C349.39,328.177,349.199,327.392,349.107,326.588z"
						/>
				</g>
				<g>
					<path style="fill:#002E5C;" d="M353.528,330.259c0.123,1.077,0.009,2.181-0.333,3.228c-0.187,0.514-0.455,1.026-0.875,1.406
						c-0.414,0.389-0.987,0.569-1.527,0.526c0.542-0.065,1.027-0.306,1.375-0.682c0.35-0.374,0.602-0.844,0.76-1.345
						c0.185-0.492,0.296-1.013,0.392-1.537C353.41,331.33,353.482,330.798,353.528,330.259z"/>
				</g>
				<g>
					<path style="fill:#002E5C;" d="M350.036,347.072c-1.606-0.558-3.299-0.824-4.964-1.158c-1.67-0.322-3.347-0.61-5.029-0.863
						c-3.363-0.51-6.746-0.888-10.139-1.107c-3.389-0.233-6.798-0.318-10.184-0.031c-1.692,0.138-3.378,0.385-5.023,0.806
						c-1.641,0.412-3.264,1-4.667,1.974c2.803-2,6.311-2.635,9.672-2.968c3.399-0.319,6.819-0.267,10.22-0.063
						c3.4,0.251,6.786,0.661,10.149,1.203C343.425,345.436,346.809,345.983,350.036,347.072z"/>
				</g>
				<g>
					<path style="fill:#002E5C;" d="M313.866,341.381c0.948,0.398,1.932,0.731,2.848,1.226c0.919,0.479,1.799,1.066,2.525,1.836
						c0.709,0.763,1.208,1.85,1.001,2.923c-0.181,1.069-0.873,1.925-1.599,2.64c0.327-0.399,0.65-0.803,0.884-1.257
						c0.253-0.44,0.445-0.918,0.5-1.415c0.145-0.999-0.303-1.978-0.995-2.7c-0.675-0.751-1.536-1.324-2.419-1.836
						C315.726,342.277,314.774,341.875,313.866,341.381z"/>
				</g>
				<g>
					<path style="fill:#002E5C;" d="M329.333,340.631c0.789,0.617,1.509,1.328,2.124,2.128c0.616,0.795,1.125,1.705,1.344,2.716
						c0.217,1.009-0.041,2.134-0.734,2.898c-0.308,0.422-0.753,0.682-1.158,0.983c-0.434,0.255-0.91,0.432-1.358,0.65
						c0.867-0.487,1.767-0.975,2.346-1.77c0.616-0.751,0.845-1.759,0.626-2.706c-0.182-0.955-0.674-1.837-1.241-2.643
						C330.709,342.081,330.053,341.325,329.333,340.631z"/>
				</g>
				<g>
					<path style="fill:#002E5C;" d="M339.611,342.381c0.794,0.445,1.535,1.001,2.153,1.69c0.605,0.676,1.121,1.562,1.041,2.542
						c-0.104,0.988-0.831,1.718-1.561,2.258c-0.407,0.218-0.796,0.467-1.213,0.655l-1.282,0.48l1.221-0.605
						c0.399-0.211,0.766-0.475,1.148-0.708c0.679-0.557,1.338-1.237,1.405-2.107c0.095-0.859-0.371-1.69-0.924-2.374
						C341.03,343.522,340.348,342.913,339.611,342.381z"/>
				</g>
				<g>
					<path style="fill:#002E5C;" d="M363.638,353.881c3.184-0.848,6.434-1.442,9.701-1.879c3.267-0.431,6.56-0.727,9.862-0.734
						c0.825-0.025,1.65,0.018,2.474,0.055c0.824,0.045,1.651,0.043,2.47,0.15l2.463,0.255l2.438,0.433
						c3.228,0.666,6.399,1.746,9.191,3.519c-2.849-1.677-6.014-2.682-9.227-3.334l-2.43-0.407l-2.454-0.23
						c-0.816-0.1-1.64-0.09-2.461-0.126c-0.821-0.029-1.642-0.062-2.464-0.032c-3.288-0.025-6.574,0.238-9.839,0.637
						c-1.633,0.194-3.26,0.448-4.881,0.733C366.859,353.194,365.24,353.5,363.638,353.881z"/>
				</g>
				<g>
					<path style="fill:#002E5C;" d="M396.467,349.005c-1.054,0.382-2.057,0.898-2.961,1.535c-0.892,0.641-1.706,1.448-2.093,2.464
						c-0.399,0.999-0.354,2.165,0.101,3.172c0.168,0.525,0.508,0.979,0.754,1.478l0.993,1.353l-1.108-1.274
						c-0.275-0.491-0.641-0.939-0.842-1.474c-0.512-1.021-0.574-2.28-0.163-3.359c0.438-1.08,1.293-1.921,2.234-2.54
						C394.332,349.739,395.381,349.288,396.467,349.005z"/>
				</g>
				<g>
					<path style="fill:#002E5C;" d="M382.475,348.731c-0.663,0.583-1.228,1.268-1.681,2.006c-0.443,0.741-0.755,1.574-0.755,2.428
						c-0.014,0.845,0.226,1.705,0.716,2.423c0.2,0.386,0.525,0.69,0.782,1.043l0.939,0.928l-1.038-0.832
						c-0.284-0.341-0.634-0.635-0.866-1.021c-0.546-0.719-0.811-1.643-0.816-2.548c0.025-0.914,0.356-1.796,0.854-2.538
						C381.112,349.878,381.747,349.233,382.475,348.731z"/>
				</g>
				<g>
					<path style="fill:#002E5C;" d="M371.944,350.006c-0.519,0.718-0.974,1.477-1.368,2.261c-0.391,0.783-0.71,1.609-0.835,2.464
						c-0.149,0.848-0.068,1.734,0.33,2.497c0.39,0.782,1.135,1.299,1.873,1.778c-0.783-0.385-1.606-0.852-2.063-1.671
						c-0.469-0.795-0.555-1.759-0.42-2.648C369.786,352.896,370.76,351.314,371.944,350.006z"/>
				</g>
				<g>
					<path style="fill:#002E5C;" d="M393.149,324.06c-1.299,0.045-2.592,0.187-3.877,0.364c-1.288,0.159-2.568,0.376-3.842,0.622
						c-2.546,0.501-5.056,1.176-7.511,2.007c-2.471,0.785-4.871,1.787-7.197,2.932l-1.734,0.883l-1.681,0.981
						c-1.147,0.613-2.189,1.393-3.291,2.083c2.106-1.518,4.273-2.981,6.621-4.115c2.32-1.178,4.718-2.215,7.192-3.032
						c2.477-0.805,5.005-1.452,7.565-1.923C387.954,324.393,390.548,324.068,393.149,324.06z"/>
				</g>
				<g>
					<path style="fill:#002E5C;" d="M387.274,330.259c-1.146-1.272-2.076-2.754-2.663-4.388c-0.263-0.82-0.418-1.721-0.216-2.586
						c0.189-0.88,0.857-1.563,1.629-1.926c-0.725,0.461-1.278,1.155-1.416,1.972c-0.145,0.81-0.005,1.661,0.271,2.452
						c0.261,0.8,0.635,1.563,1.041,2.308C386.333,328.833,386.784,329.558,387.274,330.259z"/>
				</g>
				<g>
					<path style="fill:#002E5C;" d="M378.583,332.839c-1.276-1.058-2.343-2.398-3.028-3.936c-0.315-0.778-0.539-1.607-0.542-2.457
						c0.015-0.852,0.277-1.673,0.7-2.387c-0.33,0.764-0.504,1.571-0.482,2.383c0.048,0.811,0.259,1.603,0.584,2.349
						c0.302,0.758,0.743,1.455,1.209,2.129C377.499,331.589,378.011,332.239,378.583,332.839z"/>
				</g>
				<g>
					<path style="fill:#002E5C;" d="M369.524,327.381c-0.015,0.7,0.002,1.398,0.042,2.091c0.046,0.693,0.113,1.384,0.256,2.057
						c0.118,0.679,0.342,1.336,0.676,1.925c0.334,0.585,0.849,1.084,1.526,1.301c-0.702-0.111-1.324-0.581-1.71-1.185
						c-0.395-0.601-0.626-1.293-0.769-1.985C369.294,330.191,369.28,328.764,369.524,327.381z"/>
				</g>
			</g>
		</g>
		<g>
			<rect x="375.491" y="137.791" style="fill:#E9E6FF;" width="40.389" height="49.497"/>
			
				<rect x="377.182" y="148.591" transform="matrix(-1.836970e-16 1 -1 -1.836970e-16 558.2256 -233.1458)" style="fill:#D1CEE6;" width="37.007" height="27.899"/>
			<path style="fill:#D1CEE6;" d="M381.736,164.845v16.199h27.899v-17.451c-1.559,0.701-3.164,1.253-4.77,1.654
				C397.764,167.022,388.518,160.936,381.736,164.845z"/>
			<path style="fill:#DAD7F0;" d="M381.736,144.036v20.808c6.782-3.908,16.027,2.178,23.128,0.402
				c1.606-0.402,3.211-0.954,4.77-1.654v-19.556H381.736z"/>
			<polygon style="fill:#ACAABD;" points="405.147,155.426 408.743,166.15 401.552,166.15 			"/>
			<line style="fill:none;stroke:#ACAABD;stroke-miterlimit:10;" x1="405.147" y1="164.558" x2="405.147" y2="170.892"/>
			<polygon style="fill:#ACAABD;" points="400.954,160.316 403.405,167.628 398.502,167.628 			"/>
			<line style="fill:none;stroke:#ACAABD;stroke-miterlimit:10;" x1="400.954" y1="166.543" x2="400.954" y2="170.862"/>
			<polygon style="fill:#ACAABD;" points="398.147,164.589 400.079,170.352 396.214,170.352 			"/>
			<line style="fill:none;stroke:#ACAABD;stroke-miterlimit:10;" x1="398.147" y1="169.497" x2="398.147" y2="172.901"/>
			<path style="fill:#F0F0F0;" d="M384.354,158.933h10.425c0,0-0.826-4.268-3.442-2.891c-1.652-3.855-4.892-0.615-4.892-0.615
				C385.141,152.186,380.863,155.442,384.354,158.933z"/>
			<path style="fill:#F0F0F0;" d="M396.148,152.122h5.404c0,0-0.428-2.212-1.784-1.499c-0.856-1.998-2.536-0.319-2.536-0.319
				C396.556,148.625,394.338,150.313,396.148,152.122z"/>
		</g>
		<g>
			<rect x="375.491" y="205.098" style="fill:#E9E6FF;" width="40.389" height="49.497"/>
			
				<rect x="377.182" y="215.898" transform="matrix(-1.836970e-16 1 -1 -1.836970e-16 625.5327 -165.8388)" style="fill:#D1CEE6;" width="37.007" height="27.899"/>
			<path style="fill:#D1CEE6;" d="M381.736,232.152v16.199h27.899V230.9c-1.559,0.701-3.164,1.253-4.77,1.654
				C397.764,234.329,388.518,228.243,381.736,232.152z"/>
			<path style="fill:#DAD7F0;" d="M381.736,211.344v20.808c6.782-3.908,16.027,2.178,23.128,0.402
				c1.606-0.401,3.211-0.953,4.77-1.654v-19.556H381.736z"/>
			<polygon style="fill:#ACAABD;" points="388.342,222.733 384.354,233.457 392.331,233.457 			"/>
			<line style="fill:none;stroke:#ACAABD;stroke-miterlimit:10;" x1="388.342" y1="231.865" x2="388.342" y2="238.199"/>
			<polygon style="fill:#ACAABD;" points="394.263,220.732 390.274,231.455 398.251,231.455 			"/>
			<line style="fill:none;stroke:#ACAABD;stroke-miterlimit:10;" x1="394.263" y1="229.864" x2="394.263" y2="236.197"/>
			<polygon style="fill:#ACAABD;" points="398.83,226.997 395.686,235.45 401.973,235.45 			"/>
			<line style="fill:none;stroke:#ACAABD;stroke-miterlimit:10;" x1="398.83" y1="234.196" x2="398.83" y2="239.188"/>
			<path style="fill:#F0F0F0;" d="M385.988,217.662h5.404c0,0-0.428-2.212-1.784-1.499c-0.856-1.998-2.536-0.319-2.536-0.319
				C386.396,214.165,384.178,215.852,385.988,217.662z"/>
			<path style="fill:#F0F0F0;" d="M397.955,221.986h7.192c0,0-0.57-2.945-2.375-1.995c-1.14-2.66-3.375-0.425-3.375-0.425
				C398.498,217.331,395.546,219.577,397.955,221.986z"/>
		</g>
		
			<rect x="338.129" y="365.279" transform="matrix(-1 -1.224647e-16 1.224647e-16 -1 725.0889 784.9668)" style="fill:#E3E0EF;" width="48.832" height="54.409"/>
		
			<rect x="376.851" y="365.279" transform="matrix(-1 -1.224647e-16 1.224647e-16 -1 763.8115 784.9668)" style="fill:#ACAABD;" width="10.109" height="54.409"/>
		<g>
			<path style="fill:#F67406;" d="M354.894,355.991c13.661,2.299,2.696,28.886-17.166,27.324
				C317.865,381.754,338.301,353.199,354.894,355.991z"/>
			<g>
				<path style="fill:#002E5C;" d="M355.174,359.491c-2.261,1.119-4.45,2.374-6.589,3.703c-2.133,1.34-4.187,2.805-6.119,4.415
					c-1.939,1.598-3.77,3.344-5.295,5.344c-0.77,0.992-1.444,2.06-1.993,3.189c-0.562,1.122-0.995,2.314-1.23,3.555
					c0.378-2.505,1.548-4.845,3.072-6.858c1.512-2.035,3.333-3.818,5.265-5.449c1.964-1.596,4.045-3.04,6.2-4.357
					C350.637,361.711,352.865,360.511,355.174,359.491z"/>
			</g>
			<g>
				<path style="fill:#002E5C;" d="M342.537,378.524c-0.305-1.078-0.731-2.116-1.221-3.113c-0.503-0.99-1.074-1.951-1.807-2.781
					c-0.72-0.839-1.589-1.539-2.57-2.043c-0.99-0.505-2.101-0.684-3.219-0.747c1.114-0.043,2.271,0.062,3.312,0.549
					c1.034,0.479,1.936,1.208,2.692,2.055c0.735,0.868,1.321,1.847,1.789,2.873C341.975,376.345,342.333,377.42,342.537,378.524z"/>
			</g>
			<g>
				<path style="fill:#002E5C;" d="M348.558,372.485c-0.327-1.042-0.717-2.061-1.157-3.054c-0.448-0.989-0.948-1.955-1.564-2.841
					c-0.589-0.902-1.337-1.71-2.245-2.269c-0.904-0.567-2.01-0.778-3.094-0.586c1.057-0.296,2.236-0.165,3.204,0.398
					c0.975,0.546,1.75,1.389,2.369,2.297C347.289,368.27,348.105,370.347,348.558,372.485z"/>
			</g>
			<g>
				<path style="fill:#002E5C;" d="M353.667,367.797c-0.232-1.027-0.531-2.035-0.869-3.025c-0.346-0.987-0.747-1.956-1.255-2.864
					c-0.483-0.92-1.099-1.777-1.884-2.448c-0.776-0.675-1.754-1.123-2.814-1.19c1.061-0.041,2.121,0.347,2.953,1.022
					c0.847,0.663,1.481,1.552,1.993,2.479C352.789,363.648,353.404,365.707,353.667,367.797z"/>
			</g>
		</g>
	</g>
</g>
<g id="OBJECTS">
	<g>
		<g>
			<path style="fill:#F67406;" d="M181.017,279.578l-2.02-0.372l0.214-1.16c0.088-0.475,0.544-0.789,1.019-0.702l0.299,0.055
				c0.475,0.087,0.79,0.544,0.702,1.019L181.017,279.578z"/>
			
				<rect x="177.101" y="279.376" transform="matrix(0.9834 0.1812 -0.1812 0.9834 55.417 -27.4493)" style="fill:#548DFF;" width="1.674" height="20.39"/>
			
				<rect x="178.305" y="279.521" transform="matrix(0.9835 0.1812 -0.1812 0.9835 55.441 -27.5834)" style="fill:#4583FF;" width="0.837" height="20.39"/>
			
				<rect x="178.931" y="279.045" transform="matrix(0.9834 0.1812 -0.1812 0.9834 53.6491 -27.9778)" style="fill:#ACAABD;" width="2.054" height="1.217"/>
		</g>
		<g>
			<path style="fill:#F67406;" d="M175.965,277.825l-2.041,0.229l-0.131-1.172c-0.054-0.48,0.292-0.913,0.772-0.967l0.302-0.034
				c0.48-0.054,0.913,0.292,0.967,0.772L175.965,277.825z"/>
			
				<rect x="175.075" y="278.086" transform="matrix(0.9938 -0.1113 0.1113 0.9938 -30.9937 21.3708)" style="fill:#BEBCD1;" width="1.674" height="20.39"/>
			
				<rect x="176.287" y="277.997" transform="matrix(0.9938 -0.1113 0.1113 0.9938 -30.9911 21.4682)" style="fill:#ACAABD;" width="0.837" height="20.39"/>
			
				<rect x="173.947" y="277.595" transform="matrix(0.9938 -0.1113 0.1113 0.9938 -29.8844 21.2091)" style="fill:#ACAABD;" width="2.054" height="1.217"/>
		</g>
		<g>
			<g>
				<path style="fill:#D1CEE6;" d="M174.006,287.694c-1.678-0.571-2.579-2.401-2.008-4.079c0.571-1.678,2.401-2.579,4.079-2.008
					c1.678,0.571,2.579,2.401,2.008,4.079C177.514,287.364,175.684,288.265,174.006,287.694z M175.685,282.76
					c-1.043-0.355-2.179,0.205-2.534,1.247c-0.355,1.042,0.205,2.179,1.247,2.534c1.043,0.355,2.179-0.205,2.534-1.247
					C177.287,284.252,176.728,283.115,175.685,282.76z"/>
			</g>
			<g>
				<path style="fill:#D1CEE6;" d="M179.83,289.676c-1.678-0.571-2.579-2.401-2.008-4.079c0.571-1.678,2.401-2.579,4.079-2.008
					c1.678,0.571,2.579,2.401,2.008,4.079C183.337,289.346,181.508,290.247,179.83,289.676z M181.508,284.742
					c-1.043-0.355-2.18,0.205-2.534,1.247s0.205,2.179,1.247,2.534c1.043,0.355,2.179-0.205,2.534-1.247
					C183.11,286.234,182.551,285.096,181.508,284.742z"/>
			</g>
			<g>
				<polygon style="fill:#D1CEE6;" points="173.56,296.587 174.408,287.19 175.62,287.299 175.098,293.085 179.208,288.565 
					180.109,289.384 				"/>
			</g>
		</g>
		<g>
			<polygon style="fill:#003A75;" points="258.035,344.965 271.2,419.688 272.75,419.688 263.657,344.965 			"/>
			<polygon style="fill:#003A75;" points="272.94,344.965 286.104,419.688 287.655,419.688 278.562,344.965 			"/>
			<polygon style="fill:#003A75;" points="243.722,344.965 230.558,419.688 229.008,419.688 238.101,344.965 			"/>
			<polygon style="fill:#003A75;" points="228.818,344.965 215.654,419.688 214.103,419.688 223.196,344.965 			"/>
			<path style="fill:#002E5C;" d="M271.268,241.77c0.857,6.355,3.511,7.348,0.19,10.669c-3.322,3.321,4.724,8.916,1.83,11.81
				c-2.894,2.894,4.592,14.374,1.527,21.312c-3.065,6.938,3.16,10.938-11.515,6.938c-14.675-4-30.599-11.412-25.387-23.143
				s5.199-8.345,2.949-10.595c-2.249-2.25,1.308-7.48,3.263-8.438c1.955-0.958-1.227-10.79,3.557-15.574"/>
			<path style="fill:#E66306;" d="M230.053,351.667c35.944,0.487,59.204,5.357,56.537-30.374
				c-2.667-35.731-25.448-46.626-33.102-23.793c-7.654,22.833,4.149,33.274-16.169,39.137S209.936,351.394,230.053,351.667z"/>
			<path style="fill:#F67406;" d="M286.589,321.293c-1.702-22.812-11.602-35.479-20.531-35.731
				c6.318,5.052,11.814,16.223,13.042,32.678c2.667,35.731-20.593,30.861-56.537,30.374c-1.65-0.022-3.1-0.108-4.392-0.24
				c0.67,1.892,4.387,3.191,11.881,3.292C265.997,352.153,289.256,357.024,286.589,321.293z"/>
			<polygon style="fill:#003A75;" points="215.734,317 194.809,419.688 192.344,419.688 206.799,317 			"/>
			<polygon style="fill:#003A75;" points="192.043,317 171.117,419.688 168.653,419.688 183.107,317 			"/>
			<rect x="164.97" y="312.667" style="fill:#002E5C;" width="58.405" height="81.333"/>
			<rect x="164.97" y="312.667" style="fill:#003A75;" width="29.203" height="81.333"/>
			<g>
				<path style="fill:#F7D0B7;" d="M223.716,224.713c-2.808-0.758-7.948-9.087-6.844-9.851c1.167-0.808,3.57,3.328,3.57,3.328
					s-3.939-5.342-2.214-5.901c1.551-0.502,4.036,4.868,4.036,4.868s-3.023-5.945-1.297-6.503c1.725-0.558,3.475,6.637,3.475,6.637
					s-2.319-7.007-0.841-7.489c1.75-0.571,4.067,7.466,4.067,7.466s3.831,3.526,2.587,5.894"/>
				<path style="fill:#F7D0B7;" d="M224.001,220.578c0.286-4.135,3.667-3.309,3.667-3.309l-0.251-1.84
					c-0.48-2.372,1.361-4.543,2.615-0.289c1.255,4.253,1.003,7.154-0.315,8.623"/>
				<g>
					<path style="fill:#002E5C;" d="M227.417,215.429l0.306,1.832c0.005,0.029-0.015,0.057-0.044,0.062
						c-0.005,0.001-0.015,0-0.015,0l-0.009-0.001c-0.922-0.112-1.91,0.09-2.559,0.733c-0.333,0.311-0.555,0.722-0.733,1.152
						c-0.169,0.434-0.284,0.898-0.362,1.371c-0.032-0.945,0.183-1.988,0.904-2.718c0.726-0.732,1.845-0.903,2.776-0.645
						l-0.068,0.061L227.417,215.429z"/>
				</g>
				<g>
					<path style="fill:#002E5C;" d="M223.513,214.206c0.284,0.374,0.469,0.79,0.661,1.203c0.162,0.426,0.332,0.848,0.4,1.313
						c-0.285-0.374-0.469-0.79-0.661-1.203C223.751,215.094,223.582,214.671,223.513,214.206z"/>
				</g>
				<g>
					<path style="fill:#002E5C;" d="M221.225,214.811c0.276,0.374,0.451,0.789,0.634,1.2c0.153,0.424,0.313,0.844,0.372,1.306
						c-0.277-0.374-0.452-0.789-0.634-1.2C221.445,215.693,221.285,215.272,221.225,214.811z"/>
				</g>
				<g>
					<path style="fill:#002E5C;" d="M219.006,216.044c0.334,0.315,0.576,0.688,0.825,1.056c0.221,0.386,0.45,0.766,0.585,1.206
						c-0.335-0.315-0.576-0.688-0.825-1.056C219.37,216.864,219.142,216.482,219.006,216.044z"/>
				</g>
				<path style="fill:#F7D0B7;" d="M229.596,258.762l-9.967-2.851l10.746-33.44l-8.738-0.903c0,0-19.008,34.681-14.259,41.242
					c3.004,4.15,10.595,7.813,16.505,10.681C224.465,267.451,225.515,263.72,229.596,258.762z"/>
				<path style="fill:#ACAABD;" d="M229.596,258.762c-4.081,4.958-5.131,8.69-5.713,14.73c3.433,1.666,13.332,8.808,13.332,8.808
					c2.837-1.112,1.214-4.291,5.247-7.576c3.496-2.848,3.124-8.619,4.744-10.925L229.596,258.762z"/>
				<g>
					<path style="fill:#002E5C;" d="M220.465,253.312c-0.278,1.103-0.658,2.169-1.03,3.238c-0.403,1.058-0.797,2.118-1.295,3.141
						c0.277-1.104,0.657-2.169,1.029-3.238C219.572,255.395,219.968,254.335,220.465,253.312z"/>
				</g>
				<path style="fill:#F7D0B7;" d="M278.87,223.496c2.412-1.625,4.585-11.168,3.294-11.534c-1.366-0.387-2.304,4.303-2.304,4.303
					s2.001-6.329,0.188-6.299c-1.63,0.026-2.246,5.911-2.246,5.911s0.939-6.603-0.874-6.573c-1.813,0.029-1.144,7.404-1.144,7.404
					s-0.069-7.38-1.624-7.359c-1.841,0.025-1.436,8.38-1.436,8.38s-2.487,4.574-0.544,6.413"/>
				<path style="fill:#F7D0B7;" d="M276.163,219.675c-1.606-3.821-4.54-1.947-4.54-1.947l-0.357-1.822
					c-0.313-2.4-2.755-3.859-2.568,0.571c0.187,4.43,1.362,7.094,3.085,8.059"/>
				<g>
					<path style="fill:#002E5C;" d="M272.367,215.906l0.411,1.812l-0.084-0.036c0.798-0.545,1.912-0.745,2.836-0.287
						c0.918,0.458,1.458,1.376,1.733,2.28c-0.227-0.422-0.486-0.824-0.786-1.181c-0.307-0.349-0.65-0.667-1.066-0.853
						c-0.821-0.398-1.822-0.271-2.658,0.133l-0.008,0.004c-0.027,0.013-0.059,0.002-0.072-0.025
						c-0.002-0.005-0.005-0.015-0.005-0.015L272.367,215.906z"/>
				</g>
				<g>
					<path style="fill:#002E5C;" d="M275.667,213.488c0.085,0.462,0.061,0.917,0.046,1.372c-0.048,0.453-0.088,0.906-0.237,1.352
						c-0.085-0.462-0.061-0.917-0.046-1.372C275.478,214.387,275.519,213.933,275.667,213.488z"/>
				</g>
				<g>
					<path style="fill:#002E5C;" d="M278.027,213.321c0.093,0.456,0.077,0.906,0.07,1.356c-0.04,0.449-0.071,0.898-0.213,1.341
						c-0.094-0.456-0.078-0.906-0.07-1.356C277.855,214.213,277.887,213.764,278.027,213.321z"/>
				</g>
				<g>
					<path style="fill:#002E5C;" d="M280.525,213.77c0.013,0.459-0.079,0.894-0.164,1.33c-0.116,0.429-0.224,0.86-0.439,1.266
						c-0.014-0.459,0.079-0.894,0.164-1.33C280.203,214.607,280.311,214.176,280.525,213.77z"/>
				</g>
				<path style="fill:#ACAABD;" d="M257.443,411.274l0.837,6.374H235.5c0,0-0.527-2.741,6.372-3.952
					c0.268-2.231,0.268-2.231,0.268-2.231L257.443,411.274z"/>
				
					<rect x="235.5" y="417.648" transform="matrix(-1 -1.224647e-16 1.224647e-16 -1 493.9146 837.3363)" style="fill:#C1BFD4;" width="22.914" height="2.04"/>
				<g>
					<path style="fill:#002E5C;" d="M257.91,414.632c-0.262,0.131-0.485,0.31-0.682,0.502c-0.195,0.196-0.367,0.41-0.493,0.654
						c-0.273,0.479-0.393,1.03-0.509,1.605c-0.046-0.29-0.064-0.588-0.018-0.885c0.041-0.297,0.145-0.584,0.279-0.858
						C256.795,415.131,257.309,414.689,257.91,414.632z"/>
				</g>
				<g>
					<path style="fill:#002E5C;" d="M249.886,411.019c0.076,1.36,0.126,2.72,0.13,4.079c0,0.071-0.058,0.129-0.129,0.13l-0.007,0
						l-0.008,0c-1.693-0.096-3.413,0.103-5.066,0.594c0.782-0.368,1.624-0.624,2.484-0.757c0.862-0.129,1.733-0.184,2.61-0.094
						l-0.144,0.129C249.76,413.739,249.81,412.379,249.886,411.019z"/>
				</g>
				<g>
					<path style="fill:#002E5C;" d="M239.873,414.142c1.271-0.07,2.564,0.123,3.767,0.597c0.591,0.252,1.175,0.591,1.593,1.105
						c0.43,0.504,0.629,1.168,0.59,1.804c-0.069-0.637-0.33-1.219-0.753-1.659c-0.417-0.446-0.962-0.765-1.54-0.989
						c-0.569-0.248-1.176-0.412-1.788-0.55C241.128,414.321,240.505,414.212,239.873,414.142z"/>
				</g>
				<g>
					<path style="fill:#ACAABD;" d="M229.072,411.274l0.195,6.374H204.22c0,0,2.017-2.741,9.037-3.952
						c0.492-2.231,0.492-2.231,0.492-2.231L229.072,411.274z"/>
					<polygon style="fill:#C1BFD4;" points="204.014,419.688 229.196,419.688 229.402,417.648 204.22,417.648 					"/>
					<g>
						<path style="fill:#002E5C;" d="M229.201,414.632c-0.36,0.112-0.702,0.258-1.033,0.413c-0.328,0.161-0.648,0.336-0.926,0.564
							c-0.291,0.212-0.527,0.483-0.729,0.779c-0.206,0.296-0.325,0.644-0.434,1.006c0.005-0.373,0.055-0.77,0.245-1.115
							c0.179-0.347,0.443-0.647,0.744-0.893C227.696,414.929,228.442,414.65,229.201,414.632z"/>
					</g>
					<g>
						<path style="fill:#002E5C;" d="M215.871,411.019c-0.062,1.367-0.148,2.732-0.282,4.092c-0.007,0.066-0.062,0.115-0.126,0.116
							l-0.005,0c-2.186,0.038-4.398,0.171-6.519,0.785c1.015-0.442,2.109-0.691,3.205-0.848c1.1-0.142,2.206-0.223,3.319-0.195
							l-0.132,0.116C215.471,413.726,215.659,412.371,215.871,411.019z"/>
					</g>
					<g>
						<path style="fill:#002E5C;" d="M208.31,414.897c0.38,0.281,0.624,0.695,0.807,1.122c0.075,0.221,0.145,0.445,0.171,0.678
							c0.035,0.231,0.019,0.468-0.02,0.696c-0.14-0.445-0.237-0.867-0.415-1.272c-0.068-0.209-0.165-0.407-0.255-0.61
							C208.505,415.31,208.414,415.104,208.31,414.897z"/>
					</g>
				</g>
				<path style="fill:#356FE5;" d="M209.295,337.079l1.476,74.75h19.216l0.242-65.04h17.464c10.38,0-0.204-8.414,0.841-18.794
					l0.404-4.012h-25.692C216.087,323.982,209.757,329.923,209.295,337.079z"/>
				<g>
					<path style="fill:#002E5C;" d="M211.343,402.979c3.067-0.117,6.134-0.125,9.201-0.142c3.067,0.016,6.134,0.024,9.201,0.142
						c-3.067,0.118-6.134,0.125-9.201,0.142C217.477,403.104,214.41,403.095,211.343,402.979z"/>
				</g>
				<g>
					<path style="fill:#002E5C;" d="M228.296,402.979l-0.541-26.932l-0.474-26.933l0.001-0.015c0.368-3.423,2.555-6.543,5.577-8.142
						c1.499-0.817,3.213-1.239,4.917-1.23l5.074,0.003l2.537,0.001c0.418-0.004,0.838-0.029,1.234-0.134
						c0.395-0.097,0.765-0.327,0.872-0.714c0.168-0.791-0.227-1.621-0.488-2.402c-0.294-0.792-0.601-1.585-0.82-2.406
						c-0.227-0.818-0.371-1.663-0.387-2.514c-0.003-0.854,0.137-1.69,0.213-2.532l0.537-5.046l-0.479,5.052
						c-0.067,0.842-0.198,1.684-0.18,2.524c0.03,0.841,0.185,1.674,0.421,2.481c0.233,0.809,0.538,1.597,0.837,2.388
						c0.148,0.397,0.296,0.795,0.411,1.207c0.112,0.409,0.205,0.849,0.094,1.294c-0.124,0.462-0.57,0.733-0.984,0.833
						c-0.422,0.114-0.853,0.14-1.279,0.147l-2.538,0.003c-3.336,0.132-6.91-0.53-9.89,1.232c-2.956,1.582-5.076,4.651-5.416,7.982
						l0.001-0.015l0.41,26.934L228.296,402.979z"/>
				</g>
				<path style="fill:#356FE5;" d="M237.458,337.079l13.407,9.71h6.124c10.38,0,18.794-8.414,18.794-18.794v-4.012h-34.197
					C234.426,323.982,237.2,329.923,237.458,337.079z"/>
				<g>
					<path style="fill:none;" d="M237.806,346.727"/>
				</g>
				<path style="fill:#ACAABD;" d="M236.666,323.982c7.311-16.292,5.83-25.065,2.971-30.095c-2.126-3.74-6.417-7.878-5.154-12.62
					c0.797-2.991,3.101-3.589,4.669-8.154c1.423-4.146,0.267-5.817,1.52-7.486c1.409-1.877,5.366-3.083,16.942,0.495
					c7.277,0,13.458,1.824,14.537,9.02c-1.058,4.664-1.961,14.564-1.4,22.108c0.911,12.261,5.241,21.528,8.2,26.732
					C264.855,323.982,250.761,323.982,236.666,323.982z"/>
				<g>
					<path style="fill:#002E5C;" d="M239.637,293.887c-1.358-2.236-3.095-4.223-4.298-6.575c-0.604-1.165-1.069-2.431-1.18-3.76
						c-0.115-1.325,0.166-2.688,0.813-3.859c0.669-1.164,1.618-2.086,2.345-3.161c0.747-1.062,1.321-2.238,1.752-3.466
						c0.857-2.472,1.722-4.94,2.503-7.439c-0.677,2.529-1.479,5.024-2.326,7.499c-0.42,1.245-0.989,2.45-1.735,3.539
						c-0.728,1.101-1.667,2.043-2.291,3.166c-0.631,1.113-0.921,2.42-0.824,3.703c0.092,1.288,0.529,2.534,1.113,3.693
						C236.683,289.554,238.372,291.592,239.637,293.887z"/>
				</g>
				<path style="fill:#ACAABD;" d="M275.427,259.213l-16.198,6.66c1.867,2.111,4.62,4.782,8.411,7.223
					c4.373,2.816-0.795,5.614,2.148,6.404c0,0,10.218-5.394,13.533-7.451C278.9,267.507,278.714,262.5,275.427,259.213z"/>
				<path style="fill:#F7D0B7;" d="M271.458,223.153l14.299,31.813l-10.33,4.247c1.836,4.607,3.474,8.293,7.894,12.836
					c6.007-3.729,11.906-8.776,14.477-13.319c3.99-7.049-17.428-39.502-17.428-39.502"/>
				<g>
					<path style="fill:#F7D0B7;" d="M246.938,267.638c0.759,0.721,3.622,4.982,3.622,4.982s8.955-4.578,9.469-4.982
						c0-7.896,0-12.957,0-20.854h-13.091V267.638z"/>
					<polygon style="fill:#002E5C;" points="251.038,257.932 246.938,256.688 246.938,261.544 					"/>
					<path style="fill:#F7D0B7;" d="M241.869,246.132c-2.122,3.726-0.77,8.348,2.942,10.463l3.891,2.216
						c3.712,2.114,8.378,0.92,10.501-2.806l7.489-13.147c2.122-3.726,0.842-8.474-2.87-10.589l-3.891-2.216
						c-3.712-2.115-8.45-0.794-10.572,2.932L241.869,246.132z"/>
					<path style="fill:#F7D0B7;" d="M259.469,252.229c-0.905,1.588-0.309,3.633,1.331,4.568c1.64,0.934,3.703,0.404,4.608-1.184
						c0.905-1.589,0.309-3.634-1.331-4.568C262.437,250.11,260.374,250.641,259.469,252.229z"/>
					<g>
						<path style="fill:#002E5C;" d="M248.41,244.678c-0.221-0.344-0.612-0.29-0.803-0.008c-0.212,0.251-0.362,0.571-0.436,0.902
							c-0.196,0.659-0.074,1.38,0.407,1.932c-0.308-0.193-0.558-0.504-0.669-0.873c-0.121-0.367-0.094-0.762-0.012-1.129
							c0.107-0.361,0.267-0.72,0.558-0.986c0.137-0.13,0.338-0.242,0.549-0.217C248.231,244.324,248.332,244.527,248.41,244.678z"/>
					</g>
					<g>
						<path style="fill:#002E5C;" d="M258.986,242.139c-0.099-0.18-0.212-0.341-0.325-0.492c-0.117-0.148-0.237-0.291-0.386-0.397
							c-0.272-0.25-0.626-0.36-1.021-0.48c0.198-0.046,0.414-0.068,0.622-0.016c0.211,0.039,0.406,0.148,0.578,0.277
							C258.78,241.315,258.998,241.72,258.986,242.139z"/>
					</g>
					<g>
						<path style="fill:#002E5C;" d="M250.32,237.202c-0.098-0.18-0.212-0.341-0.325-0.492c-0.117-0.148-0.237-0.291-0.386-0.397
							c-0.272-0.25-0.626-0.36-1.021-0.48c0.199-0.046,0.414-0.068,0.622-0.016c0.211,0.039,0.406,0.148,0.578,0.277
							C250.114,236.378,250.331,236.783,250.32,237.202z"/>
					</g>
					<g>
						<path style="fill:#002E5C;" d="M254.983,243.898c-0.299,0.525-0.31,1.083-0.025,1.246c0.286,0.163,0.76-0.132,1.059-0.657
							c0.299-0.525,0.311-1.083,0.025-1.246C255.757,243.079,255.283,243.373,254.983,243.898z"/>
					</g>
					<g>
						<path style="fill:#002E5C;" d="M247.167,239.295c-0.299,0.525-0.311,1.083-0.025,1.246c0.286,0.163,0.76-0.131,1.059-0.657
							c0.299-0.525,0.31-1.083,0.025-1.246C247.94,238.476,247.466,238.77,247.167,239.295z"/>
					</g>
					<g>
						<path style="fill:#002E5C;" d="M249.977,250.632c-0.656,0.365-1.48,0.426-2.217,0.197c-0.36-0.133-0.714-0.309-0.992-0.573
							c-0.294-0.247-0.508-0.566-0.688-0.89c0.521,0.529,1.085,0.994,1.767,1.193c0.331,0.122,0.687,0.168,1.044,0.177
							C249.249,250.741,249.614,250.713,249.977,250.632z"/>
					</g>
					<g>
						<path style="fill:#002E5C;" d="M261.655,255.898c0.592-0.128,0.937-0.698,0.937-1.236c0.016-0.545-0.257-1.085-0.721-1.359
							c-0.066-0.039-0.088-0.124-0.049-0.19l0.016-0.022c0.401-0.461,1.007-0.812,1.643-0.759c0.617,0.035,1.226,0.385,1.464,0.938
							c-0.328-0.493-0.925-0.723-1.469-0.72c-0.56-0.003-1.069,0.296-1.422,0.723l-0.033-0.211c0.537,0.342,0.858,0.991,0.788,1.613
							c-0.033,0.309-0.15,0.612-0.356,0.843C262.243,255.749,261.947,255.877,261.655,255.898z"/>
					</g>
					<path style="fill:#E4A0A2;" d="M251.691,248.911c-0.311,0.546,0.116,1.376,0.954,1.854c0.838,0.477,1.77,0.421,2.081-0.125
						c0.311-0.546-0.116-1.376-0.954-1.854C252.934,248.309,252.002,248.365,251.691,248.911z"/>
					<g>
						<defs>
							<path id="SVGID_1_" d="M241.869,246.132c-2.122,3.726-0.77,8.348,2.942,10.463l3.891,2.216
								c3.712,2.114,8.378,0.92,10.501-2.806l7.489-13.147c2.122-3.726,0.842-8.474-2.87-10.589l-3.891-2.216
								c-3.712-2.115-8.45-0.794-10.572,2.932L241.869,246.132z"/>
						</defs>
						<clipPath id="SVGID_00000112594549677776094240000017384331386586849179_">
							<use xlink:href="#SVGID_1_"  style="overflow:visible;"/>
						</clipPath>
						<path style="clip-path:url(#SVGID_00000112594549677776094240000017384331386586849179_);fill:#E4A0A2;" d="M243.173,243.684
							c-0.311,0.546,0.116,1.376,0.954,1.854c0.838,0.477,1.77,0.421,2.081-0.125c0.311-0.546-0.116-1.376-0.954-1.854
							C244.416,243.082,243.484,243.138,243.173,243.684z"/>
					</g>
				</g>
				<path style="fill:#356FE5;" d="M262.46,411.829h-21.866l-1.726-77.913c-0.134-6.033,4.784-11.018,10.986-11.018h0
					c6.202,0,11.148,4.985,11.049,11.018L262.46,411.829z"/>
				<g>
					<path style="fill:#002E5C;" d="M257.417,402.312c-0.228-6.95-0.397-13.903-0.506-20.856c-0.117-6.953-0.202-13.907-0.2-20.862
						c0.018-3.478,0.059-6.955,0.164-10.432c0.057-1.738,0.124-3.477,0.253-5.214c0.07-0.868,0.139-1.736,0.292-2.601
						c0.038-0.216,0.084-0.432,0.148-0.647c0.037-0.107,0.067-0.215,0.135-0.323c0.019-0.053,0.078-0.109,0.146-0.155
						c0.063-0.041,0.114-0.03,0.172-0.047c0.454-0.113,0.891-0.069,1.327-0.061c1.739,0.098,3.472,0.232,5.196,0.035
						c1.719-0.172,3.419-0.657,4.917-1.521c3.049-1.692,5.094-4.766,6.322-7.987c-1.186,3.235-3.19,6.352-6.254,8.108
						c-1.511,0.885-3.232,1.381-4.967,1.563c-1.739,0.207-3.493,0.078-5.221-0.011c-0.427-0.008-0.874-0.042-1.268,0.06
						c-0.124,0.021-0.165,0.028-0.205,0.119c-0.05,0.077-0.079,0.18-0.113,0.278c-0.059,0.201-0.104,0.411-0.14,0.624
						c-0.146,0.849-0.212,1.717-0.277,2.581c-0.12,1.731-0.18,3.468-0.229,5.205c-0.09,3.474-0.112,6.95-0.117,10.426
						c-0.034,6.952,0.02,13.906,0.105,20.859L257.417,402.312z"/>
				</g>
				<g>
					<path style="fill:#002E5C;" d="M239.192,348.574c-0.114-2.665-0.206-5.33-0.271-7.995l-0.112-3.998
						c-0.02-1.334-0.129-2.659-0.02-4.014c0.263-2.697,1.642-5.236,3.676-6.989c1.015-0.88,2.191-1.573,3.451-2.032
						c1.264-0.448,2.604-0.661,3.938-0.648c-2.667,0.064-5.286,1.066-7.264,2.822c-1.98,1.747-3.293,4.248-3.519,6.876
						c-0.122,1.303-0.031,2.649-0.026,3.979l0.065,3.999C239.162,343.24,239.188,345.907,239.192,348.574z"/>
				</g>
				<g>
					<path style="fill:#002E5C;" d="M240.95,402.979c3.553-0.117,7.106-0.125,10.658-0.142c3.553,0.016,7.106,0.024,10.658,0.142
						c-3.553,0.118-7.106,0.125-10.658,0.142C248.056,403.104,244.503,403.095,240.95,402.979z"/>
				</g>
				<g>
					<path style="fill:#002E5C;" d="M285.045,253.382c0.602,0.887,1.108,1.825,1.621,2.759c0.484,0.949,0.976,1.895,1.371,2.892
						c-0.603-0.887-1.108-1.825-1.621-2.759C285.932,255.324,285.441,254.379,285.045,253.382z"/>
				</g>
				<g>
					<defs>
						<path id="SVGID_00000033333096794364224340000005007118979948752001_" d="M271.537,278.572
							c3.066-1.634,9.324-4.996,11.784-6.523c-4.421-4.542-4.607-9.548-7.894-12.836l-16.198,6.66
							c0.086,0.097,0.183,0.2,0.272,0.299c-0.621-0.031-1.248-0.051-1.889-0.051c-4.574-1.414-7.945-2.072-10.452-2.246
							c0.016-0.024,0.03-0.053,0.046-0.077l-17.61-5.037c-4.081,4.958-5.131,8.69-5.713,14.73c2.34,1.135,7.681,4.814,10.847,7.042
							c-0.092,0.231-0.178,0.47-0.248,0.734c-1.263,4.742,3.028,8.88,5.154,12.62c2.86,5.03,4.341,13.803-2.971,30.095h42.284
							c-2.959-5.204-7.289-14.471-8.2-26.732C270.303,291.237,270.787,283.734,271.537,278.572z"/>
					</defs>
					<clipPath id="SVGID_00000013186926357587160900000006148857246928656273_">
						<use xlink:href="#SVGID_00000033333096794364224340000005007118979948752001_"  style="overflow:visible;"/>
					</clipPath>
					<g style="clip-path:url(#SVGID_00000013186926357587160900000006148857246928656273_);">
						<g>
							<path style="fill:#002E5C;" d="M243.389,259.691c-0.71,0.837-1.383,1.717-1.881,2.694c-0.471,0.966-0.795,2.107-0.421,3.139
								c0.166,0.516,0.486,0.948,0.85,1.365c0.355,0.423,0.69,0.862,1.002,1.318c0.629,0.908,1.163,1.881,1.625,2.882
								c0.466,1.001,0.861,2.03,1.245,3.061c0.195,0.518,0.361,1.035,0.782,1.353c0.422,0.293,0.949,0.435,1.487,0.437
								c1.078,0.037,2.158-0.227,3.239-0.411c0.541-0.099,1.088-0.19,1.646-0.233c0.553-0.028,1.139-0.054,1.686,0.197
								c0.144,0.041,0.265,0.129,0.378,0.233c0.117,0.096,0.239,0.197,0.315,0.279c0.177,0.17,0.402,0.254,0.642,0.224
								c0.488-0.072,0.938-0.428,1.358-0.757c0.85-0.673,1.628-1.503,2.693-1.943c0.526-0.22,1.176-0.231,1.688,0.066
								c0.526,0.275,0.822,0.808,1.243,1.083c0.21,0.148,0.464,0.201,0.677,0.087c0.214-0.109,0.386-0.319,0.518-0.548
								c0.269-0.46,0.443-0.984,0.603-1.504c0.312-1.048,0.522-2.128,0.801-3.196c0.071-0.267,0.145-0.533,0.241-0.796
								c0.107-0.255,0.18-0.54,0.46-0.733c0.329-0.004,0.368-0.267,0.448-0.527c0.061-0.26,0.084-0.533,0.103-0.805
								c0.093-2.187-0.162-4.387-0.418-6.566c0.302,2.176,0.603,4.362,0.557,6.574c-0.013,0.277-0.037,0.554-0.099,0.83
								c-0.033,0.138-0.072,0.276-0.151,0.408c-0.037,0.067-0.096,0.126-0.173,0.173l-0.199,0.049
								c-0.181,0.122-0.288,0.406-0.379,0.65c-0.091,0.255-0.162,0.519-0.231,0.784c-0.269,1.062-0.472,2.145-0.779,3.207
								c-0.158,0.529-0.329,1.061-0.611,1.553c-0.14,0.243-0.323,0.486-0.6,0.632c-0.284,0.157-0.648,0.076-0.88-0.093
								c-0.497-0.334-0.764-0.831-1.237-1.066c-0.457-0.258-1.007-0.247-1.495-0.043c-0.987,0.412-1.759,1.232-2.615,1.924
								c-0.434,0.336-0.875,0.722-1.49,0.826c-0.309,0.047-0.646-0.077-0.863-0.29c-0.113-0.119-0.207-0.187-0.303-0.266
								c-0.091-0.086-0.19-0.159-0.317-0.193c-0.46-0.222-1.02-0.21-1.552-0.185c-0.539,0.037-1.079,0.122-1.619,0.217
								c-1.081,0.174-2.165,0.435-3.294,0.391c-0.56-0.008-1.14-0.158-1.615-0.496c-0.479-0.365-0.66-0.961-0.844-1.456
								c-0.375-1.032-0.762-2.059-1.217-3.056c-0.451-0.997-0.973-1.964-1.59-2.868c-0.305-0.454-0.635-0.892-0.983-1.314
								c-0.353-0.41-0.704-0.881-0.864-1.42c-0.366-1.092-0.003-2.25,0.491-3.213C241.97,261.379,242.661,260.513,243.389,259.691z"
								/>
						</g>
						<g>
							<path style="fill:#002E5C;" d="M237.802,259.478c-1.037,1.757-1.874,3.663-2.209,5.663c-0.148,0.996-0.159,2.032,0.17,2.977
								c0.344,0.927,0.972,1.768,1.537,2.607c0.287,0.424,0.588,0.842,0.826,1.316c0.243,0.457,0.361,1.083,0.089,1.588
								c-0.56,0.966-1.548,1.417-2.323,2.053c-0.807,0.619-1.552,1.319-2.227,2.082c-0.334,0.383-0.653,0.782-0.917,1.217
								c-0.127,0.219-0.251,0.445-0.318,0.689c-0.074,0.229-0.109,0.536,0.111,0.705c-0.23-0.158-0.21-0.478-0.145-0.713
								c0.058-0.253,0.173-0.486,0.291-0.715c0.247-0.453,0.551-0.87,0.871-1.273c0.66-0.789,1.397-1.514,2.197-2.163
								c0.775-0.669,1.756-1.141,2.228-1.997c0.219-0.427,0.126-0.917-0.102-1.353c-0.225-0.44-0.527-0.854-0.816-1.275
								c-0.565-0.859-1.18-1.681-1.548-2.685c-0.335-1.004-0.326-2.081-0.14-3.095C235.76,263.066,236.676,261.182,237.802,259.478z
								"/>
						</g>
						<g>
							<path style="fill:#002E5C;" d="M236.01,256.578l-2.092,5.63c-0.64,1.879-1.356,3.796-1.358,5.772
								c0.012,0.487,0.044,0.982,0.197,1.444c0.049,0.24,0.168,0.454,0.257,0.68c0.08,0.235,0.203,0.497,0.229,0.754
								c0.107,1.058-0.284,2.048-0.729,2.943c-0.927,1.798-2.191,3.38-3.552,4.846c1.282-1.533,2.48-3.159,3.356-4.942
								c0.409-0.89,0.781-1.856,0.669-2.81c-0.028-0.238-0.13-0.44-0.211-0.674c-0.098-0.238-0.224-0.467-0.279-0.72
								c-0.165-0.491-0.205-1.01-0.22-1.519c0.029-2.056,0.753-3.976,1.438-5.85C234.433,260.26,235.229,258.422,236.01,256.578z"/>
						</g>
						<g>
							<path style="fill:#002E5C;" d="M269.458,256.688c0.41,1.002,0.775,2.024,1.112,3.055c0.325,1.034,0.633,2.071,0.994,3.089
								c0.361,1.018,0.774,2.016,1.227,2.996c0.445,0.977,1.002,1.903,1.805,2.608c0.386,0.366,0.824,0.683,1.226,1.068
								c0.406,0.381,0.723,0.87,0.901,1.398c0.362,1.061,0.314,2.18,0.335,3.251c0.025,1.077,0.123,2.155,0.342,3.211
								c0.22,1.049,0.517,2.112,1.126,3.013c-1.249-1.802-1.562-4.071-1.657-6.217c-0.035-1.083-0.01-2.175-0.369-3.177
								c-0.177-0.495-0.469-0.933-0.858-1.29c-0.385-0.36-0.833-0.674-1.238-1.048c-0.825-0.744-1.393-1.725-1.827-2.718
								c-0.442-0.992-0.842-2.003-1.19-3.032C270.687,260.836,270.203,258.724,269.458,256.688z"/>
						</g>
						<g>
							<path style="fill:#002E5C;" d="M267.715,259.691c0.386,1.832,0.641,3.694,0.931,5.536c0.159,0.916,0.366,1.827,0.837,2.615
								c0.232,0.394,0.518,0.756,0.824,1.101c0.314,0.333,0.64,0.67,0.954,1.04c1.137,1.532,1.875,3.279,2.551,5.025
								c0.655,1.758,1.21,3.55,1.663,5.367c-0.553-1.788-1.178-3.553-1.866-5.288c-0.712-1.718-1.452-3.459-2.57-4.928
								c-0.57-0.693-1.315-1.349-1.779-2.187c-0.484-0.834-0.703-1.784-0.829-2.71C268.178,263.401,268,261.543,267.715,259.691z"/>
						</g>
						<g>
							<path style="fill:#002E5C;" d="M237.595,276.329c0.984,1.237,1.922,2.517,2.937,3.724c0.509,0.596,1.053,1.183,1.745,1.535
								c0.696,0.344,1.494,0.409,2.275,0.447c1.574,0.022,3.169,0.101,4.704-0.217c1.56-0.245,2.953-1.029,4.567-1.305
								c0.818-0.13,1.67,0.131,2.341,0.578c0.697,0.427,1.188,1.105,1.837,1.488c1.358,0.758,3.022,0.728,4.562,0.551
								c1.562-0.196,3.095-0.598,4.598-1.078c1.506-0.473,2.989-1.03,4.432-1.677c-2.852,1.356-5.852,2.489-9.006,2.942
								c-1.557,0.191-3.248,0.255-4.705-0.534c-0.722-0.426-1.191-1.078-1.859-1.473c-0.646-0.416-1.407-0.64-2.167-0.516
								c-1.516,0.238-2.972,1.019-4.557,1.255c-1.579,0.308-3.177,0.211-4.757,0.173c-0.788-0.047-1.609-0.119-2.34-0.488
								c-0.724-0.378-1.274-0.985-1.778-1.593C239.44,278.898,238.544,277.596,237.595,276.329z"/>
						</g>
						<g>
							<path style="fill:#002E5C;" d="M232.833,283.34c0.758,0.434,1.649,0.468,2.496,0.58c0.856,0.095,1.717,0.201,2.558,0.42
								c0.839,0.218,1.655,0.553,2.39,1.022c0.747,0.45,1.348,1.123,2.026,1.598c0.712,0.464,1.574,0.618,2.416,0.651
								c0.85,0.033,1.705-0.072,2.556-0.193c1.695-0.222,3.434-0.599,5.183-0.269c0.219,0.029,0.433,0.083,0.64,0.163
								c0.206,0.08,0.428,0.12,0.62,0.233c0.401,0.204,0.774,0.43,1.141,0.608c0.768,0.342,1.615,0.509,2.462,0.615
								c1.702,0.199,3.43,0.163,5.148,0.092c1.72-0.075,3.439-0.218,5.16-0.332c0.861-0.049,1.723-0.095,2.587-0.102
								c0.432-0.002,0.864,0.002,1.294,0.044c0.421,0.049,0.882,0.087,1.224,0.363c-0.348-0.266-0.806-0.29-1.226-0.328
								c-0.429-0.03-0.86-0.023-1.29-0.009c-0.861,0.031-1.719,0.099-2.578,0.172c-1.718,0.134-3.436,0.29-5.161,0.382
								c-1.723,0.086-3.456,0.14-5.185-0.046c-0.861-0.1-1.728-0.259-2.542-0.612c-0.408-0.196-0.776-0.415-1.146-0.598
								c-0.182-0.106-0.395-0.141-0.59-0.215c-0.197-0.076-0.401-0.123-0.611-0.151c-1.668-0.334-3.395,0.015-5.098,0.225
								c-0.855,0.114-1.722,0.213-2.596,0.171c-0.865-0.042-1.764-0.21-2.509-0.704c-0.726-0.522-1.28-1.168-2.013-1.618
								c-0.715-0.467-1.512-0.8-2.338-1.028c-0.824-0.238-1.677-0.366-2.531-0.484C234.478,283.854,233.58,283.795,232.833,283.34z"
								/>
						</g>
						<g>
							<path style="fill:#002E5C;" d="M235.545,295.91c1.719-0.537,3.413-1.145,5.146-1.649c0.868-0.237,1.764-0.436,2.679-0.418
								c0.915,0.012,1.808,0.256,2.655,0.569c1.698,0.621,3.275,1.55,4.928,2.203c1.665,0.661,3.505,0.694,5.242,0.317
								c1.751-0.343,3.438-1.02,5.214-1.393c1.766-0.41,3.638-0.409,5.397,0.034c0.885,0.217,1.73,0.514,2.598,0.746
								c0.867,0.228,1.743,0.436,2.632,0.554c0.886,0.13,1.785,0.212,2.681,0.154c0.882-0.073,1.814-0.216,2.547-0.753
								c-0.72,0.557-1.655,0.727-2.542,0.822c-0.902,0.081-1.809,0.022-2.705-0.086c-0.898-0.108-1.78-0.312-2.655-0.533
								c-0.874-0.226-1.733-0.518-2.6-0.722c-1.736-0.42-3.563-0.406-5.302,0.014c-1.749,0.382-3.423,1.074-5.207,1.439
								c-1.775,0.371-3.684,0.318-5.38-0.374c-0.848-0.343-1.652-0.747-2.455-1.148c-0.809-0.39-1.62-0.78-2.456-1.1
								c-0.835-0.316-1.703-0.561-2.593-0.58c-0.89-0.026-1.773,0.164-2.64,0.388C238.99,294.852,237.277,295.418,235.545,295.91z"
								/>
						</g>
						<g>
							<path style="fill:#002E5C;" d="M239.535,302.333c0.373-0.027,0.736-0.154,0.999-0.424c0.253-0.271,0.447-0.59,0.646-0.906
								c0.207-0.31,0.424-0.628,0.737-0.855c0.313-0.217,0.696-0.35,1.078-0.348c0.77-0.02,1.501,0.242,2.187,0.535
								c0.697,0.283,1.342,0.673,2.004,1.016c1.283,0.737,2.702,1.27,4.172,1.387c1.474,0.124,2.938-0.179,4.39-0.51
								c1.457-0.312,2.967-0.558,4.477-0.423c1.523,0.102,2.922,0.717,4.39,0.897c1.466,0.225,2.967,0.231,4.435,0.006
								c1.468-0.206,2.923-0.623,4.237-1.332c-2.604,1.474-5.736,1.94-8.699,1.513c-1.502-0.171-2.906-0.768-4.382-0.848
								c-1.478-0.117-2.948,0.139-4.398,0.464c-1.451,0.314-2.957,0.612-4.471,0.468c-1.511-0.137-2.954-0.7-4.243-1.458
								c-0.66-0.35-1.291-0.742-1.976-1.028c-0.673-0.298-1.388-0.555-2.117-0.548c-0.364-0.013-0.72,0.1-1.023,0.295
								c-0.303,0.204-0.525,0.507-0.74,0.809c-0.208,0.308-0.413,0.625-0.679,0.893
								C240.282,302.201,239.907,302.318,239.535,302.333z"/>
						</g>
						<g>
							<path style="fill:#002E5C;" d="M239.535,308c0.591,0.523,1.19,1.064,1.926,1.362c0.72,0.322,1.516,0.419,2.299,0.372
								c1.568-0.115,3.143-0.436,4.741-0.41c1.596-0.003,3.184,0.252,4.725,0.648c0.775,0.2,1.529,0.441,2.295,0.602
								c0.767,0.171,1.551,0.256,2.335,0.297c3.156,0.189,6.277-0.572,9.349-1.311c1.542-0.362,3.097-0.736,4.692-0.827
								c1.574-0.093,3.284,0.263,4.412,1.427c-1.164-1.129-2.853-1.423-4.404-1.288c-1.575,0.109-3.119,0.493-4.656,0.872
								c-3.063,0.768-6.195,1.571-9.409,1.41c-0.798-0.05-1.595-0.145-2.375-0.327c-0.784-0.173-1.542-0.424-2.3-0.627
								c-1.522-0.408-3.088-0.675-4.666-0.688c-1.582-0.043-3.14,0.264-4.735,0.36c-0.798,0.025-1.613-0.098-2.333-0.447
								C240.695,309.1,240.11,308.539,239.535,308z"/>
						</g>
						<g>
							<path style="fill:#002E5C;" d="M237.517,314.167c0.663,0.595,1.447,1.1,2.346,1.16c0.894,0.076,1.757-0.241,2.588-0.548
								c1.653-0.623,3.397-1.343,5.232-1.154c1.83,0.123,3.487,1.004,4.986,1.971c1.48,0.986,3.119,1.749,4.852,2.128
								c1.732,0.399,3.525,0.381,5.306,0.216c0.89-0.057,1.805-0.154,2.708,0.055c0.227,0.046,0.447,0.116,0.651,0.232
								c0.219,0.085,0.403,0.226,0.579,0.379c0.358,0.301,0.66,0.57,1.094,0.692c0.834,0.265,1.749,0.168,2.615,0.011
								c0.872-0.172,1.727-0.441,2.562-0.755c1.675-0.621,3.293-1.404,4.849-2.29c-1.533,0.926-3.131,1.752-4.799,2.42
								c-0.836,0.327-1.696,0.603-2.579,0.787c-0.879,0.166-1.811,0.28-2.704,0.007c-0.22-0.071-0.434-0.166-0.63-0.295
								c-0.194-0.13-0.366-0.3-0.535-0.422c-0.165-0.141-0.336-0.272-0.541-0.347c-0.189-0.107-0.395-0.171-0.61-0.211
								c-0.851-0.19-1.752-0.092-2.64-0.026c-1.777,0.181-3.614,0.22-5.387-0.175c-1.769-0.403-3.43-1.196-4.919-2.207
								c-1.485-0.976-3.087-1.844-4.871-1.981c-1.785-0.202-3.501,0.489-5.171,1.096c-0.841,0.287-1.728,0.588-2.64,0.487
								C238.94,315.31,238.163,314.777,237.517,314.167z"/>
						</g>
						<g>
							<path style="fill:#002E5C;" d="M230.868,320.601c0.874,0.513,1.873,0.798,2.88,0.747c1.007-0.036,1.981-0.338,2.937-0.656
								c1.909-0.628,3.87-1.296,5.921-1.307c2.047-0.059,4.052,0.503,5.934,1.235c1.873,0.732,3.849,1.203,5.852,1.35
								c2.004,0.175,4.018,0.009,6.023-0.243c1.004-0.107,2.019-0.244,3.046-0.149c0.257,0.022,0.513,0.055,0.761,0.138
								c0.257,0.05,0.492,0.162,0.724,0.285c0.461,0.233,0.886,0.42,1.392,0.472c1.991,0.182,3.989-0.404,5.9-0.997
								c1.925-0.608,3.806-1.359,5.646-2.196c-1.821,0.879-3.685,1.673-5.603,2.327c-1.917,0.612-3.906,1.221-5.968,1.052
								c-0.251-0.059-0.518-0.054-0.757-0.168c-0.237-0.103-0.495-0.208-0.706-0.315c-0.217-0.114-0.438-0.217-0.683-0.263
								c-0.234-0.077-0.48-0.106-0.728-0.125c-0.99-0.084-1.997,0.057-2.998,0.173c-2.001,0.267-4.04,0.454-6.073,0.29
								c-2.03-0.164-4.028-0.658-5.914-1.412c-1.871-0.745-3.826-1.308-5.846-1.267c-2.02-0.007-3.962,0.64-5.883,1.25
								c-0.964,0.296-1.956,0.58-2.976,0.593C232.73,321.445,231.729,321.133,230.868,320.601z"/>
						</g>
					</g>
				</g>
			</g>
			<polygon style="fill:#003A75;" points="278.714,317 299.639,419.688 302.104,419.688 287.65,317 			"/>
			<polygon style="fill:#003A75;" points="302.406,317 323.331,419.688 325.795,419.688 311.341,317 			"/>
			<g>
				<g>
					
						<rect x="201.844" y="310.389" transform="matrix(-1 -1.224647e-16 1.224647e-16 -1 469.9315 623.3062)" style="fill:#356FE5;" width="66.243" height="2.529"/>
					
						<rect x="201.844" y="310.389" transform="matrix(-1 -1.224647e-16 1.224647e-16 -1 436.8098 623.3062)" style="fill:#4583FF;" width="33.122" height="2.529"/>
					<polygon style="fill:#356FE5;" points="193.388,282.159 226.51,282.159 234.966,310.389 201.844,310.389 					"/>
					<polygon style="fill:#4583FF;" points="228.012,281.432 226.51,282.159 234.966,310.389 236.595,310.389 					"/>
					<g>
						<path style="fill:#002E5C;" d="M237.595,310.389c-5.959,0.122-11.917,0.091-17.876,0.141
							c-5.958-0.05-11.917-0.019-17.876-0.141c5.958-0.122,11.917-0.091,17.876-0.141
							C225.678,310.298,231.636,310.267,237.595,310.389z"/>
					</g>
				</g>
				<polygon style="fill:#548DFF;" points="193.388,282.159 195,281.432 228.012,281.432 226.51,282.159 				"/>
				<path style="fill:#548DFF;" d="M214.917,295.975c0.558,1.726,0.067,3.125-1.098,3.125c-1.164,0-2.561-1.399-3.118-3.125
					c-0.558-1.726-0.067-3.125,1.098-3.125C212.962,292.85,214.359,294.249,214.917,295.975z"/>
			</g>
			<rect x="161.458" y="312.667" style="fill:#002E5C;" width="156.155" height="4.333"/>
			<g>
				<path style="fill:#002E5C;" d="M272.735,277.932c-0.614,0.507-1.284,0.921-1.95,1.343c-0.683,0.393-1.361,0.794-2.096,1.1
					c0.613-0.508,1.284-0.922,1.95-1.343C271.321,278.639,272,278.239,272.735,277.932z"/>
			</g>
			<g>
				<path style="fill:#002E5C;" d="M273.288,260.093c0.515,1.185,1.079,2.345,1.66,3.495c0.587,1.147,1.195,2.283,1.856,3.387
					c1.297,2.225,2.782,4.334,4.508,6.258c-0.937-0.889-1.808-1.854-2.592-2.886c-0.778-1.036-1.496-2.117-2.16-3.228
					C275.266,264.877,274.124,262.541,273.288,260.093z"/>
			</g>
			<g>
				<path style="fill:#002E5C;" d="M230.851,259.034c-0.732,1.153-1.38,2.354-1.986,3.572c-0.598,1.222-1.145,2.469-1.604,3.748
					c-0.492,1.268-0.844,2.584-1.148,3.907c-0.303,1.327-0.453,2.68-0.54,4.044c-0.018-1.364,0.059-2.74,0.326-4.087
					c0.262-1.345,0.621-2.674,1.096-3.961C227.96,263.693,229.216,261.227,230.851,259.034z"/>
			</g>
			<path style="fill:#002E5C;" d="M246.938,237.202c0,0,3.572-3.952,10.317-3.952c-0.255,5.667,3.282,9.99,4.4,11.108
				c1.118,1.118-2.527,6.228,0.784,6.228c3.311,0,10.062-2.336,8.999-7.461c-1.063-5.125,2.937-7.125-1.938-9.25
				s-4.315-5.5-7.845-5.5c-3.515-3.515-8.172-2.635-8.172-0.75C248.625,228.25,244,232.779,246.938,237.202z"/>
			<g>
				<path style="fill:#002E5C;" d="M271.768,237.982c-0.284,1.019-0.357,2.084-0.268,3.121c0.107,1.02,0.352,2.102,1.084,2.815
					c0.739,0.766,1.399,1.67,1.674,2.726c0.294,1.055,0.11,2.18-0.342,3.131c0.354-0.994,0.447-2.083,0.132-3.072
					c-0.304-0.992-0.93-1.854-1.667-2.587c-0.788-0.81-1.033-1.946-1.099-2.998C271.23,240.05,271.384,238.971,271.768,237.982z"/>
			</g>
			<g>
				<path style="fill:#002E5C;" d="M254.283,228.008c-0.65-0.196-1.327-0.227-1.989-0.18c-0.663,0.053-1.321,0.176-1.958,0.372
					c-0.643,0.176-1.266,0.425-1.87,0.71c-0.601,0.291-1.191,0.617-1.716,1.047c0.922-1.014,2.211-1.621,3.507-2.029
					c0.66-0.179,1.34-0.31,2.028-0.317C252.971,227.601,253.668,227.714,254.283,228.008z"/>
			</g>
			<g>
				<path style="fill:#002E5C;" d="M261.39,228.64c0.712-0.498,1.692-0.406,2.466-0.058c0.792,0.35,1.44,0.949,2.043,1.524
					c0.594,0.587,1.232,1.127,1.903,1.623c0.675,0.486,1.376,0.954,2.157,1.27c-1.638-0.464-3.026-1.544-4.255-2.689
					c-0.593-0.598-1.203-1.155-1.939-1.532C263.046,228.422,262.152,228.242,261.39,228.64z"/>
			</g>
		</g>
		<g>
			<polygon style="fill:#002E5C;" points="83.333,419.688 125,419.481 166.667,419.406 250,419.264 333.333,419.405 375,419.48 
				416.667,419.688 375,419.896 333.333,419.971 250,420.112 166.667,419.97 125,419.895 			"/>
		</g>
		<g>
			<polygon style="fill:#356FE3;" points="250.406,182.774 192.329,151.094 287.661,128.106 			"/>
			<polyline style="fill:#356FE3;" points="287.661,128.106 229.885,97.674 192.329,151.094 			"/>
			<path style="fill:#E2E5F2;" d="M287.428,170.942l-75.368,18.174L184.499,74.817l61.198-14.757
				c6.868,4.199,10.718,6.553,17.586,10.753L287.428,170.942z"/>
			<polygon style="fill:#F68425;" points="302.946,191.495 207.614,214.483 192.329,151.094 250.406,182.774 287.661,128.106 			"/>
			<polygon style="fill:#FF9C4A;" points="302.946,191.495 207.614,214.483 245.531,162.56 			"/>
			<polygon style="fill:#C3C5D1;" points="245.697,60.06 249.157,74.41 263.327,70.993 			"/>
			<g>
				
					<rect x="199.402" y="90.533" transform="matrix(0.9721 -0.2344 0.2344 0.9721 -15.0985 56.0937)" style="fill:#C3C5D1;" width="58.018" height="2.054"/>
				
					<rect x="200.26" y="94.089" transform="matrix(0.9721 -0.2344 0.2344 0.9721 -15.9083 56.3938)" style="fill:#C3C5D1;" width="58.018" height="2.054"/>
				
					<rect x="201.117" y="97.645" transform="matrix(0.9721 -0.2344 0.2344 0.9721 -16.7181 56.6939)" style="fill:#C3C5D1;" width="58.017" height="2.054"/>
				
					<rect x="201.975" y="101.201" transform="matrix(0.9721 -0.2344 0.2344 0.9721 -17.5278 56.994)" style="fill:#C3C5D1;" width="58.018" height="2.054"/>
				
					<rect x="202.832" y="104.758" transform="matrix(0.9721 -0.2344 0.2344 0.9721 -18.3377 57.2947)" style="fill:#C3C5D1;" width="58.018" height="2.054"/>
				
					<rect x="203.69" y="108.314" transform="matrix(0.9721 -0.2344 0.2344 0.9721 -19.1474 57.5947)" style="fill:#C3C5D1;" width="58.018" height="2.054"/>
				
					<rect x="204.547" y="111.87" transform="matrix(0.9721 -0.2344 0.2344 0.9721 -19.9571 57.8944)" style="fill:#C3C5D1;" width="58.018" height="2.054"/>
				
					<rect x="205.405" y="115.427" transform="matrix(0.9721 -0.2344 0.2344 0.9721 -20.7668 58.1945)" style="fill:#C3C5D1;" width="58.017" height="2.054"/>
				
					<rect x="206.262" y="118.983" transform="matrix(0.9721 -0.2344 0.2344 0.9721 -21.5766 58.4946)" style="fill:#C3C5D1;" width="58.018" height="2.054"/>
				
					<rect x="207.12" y="122.539" transform="matrix(0.9721 -0.2344 0.2344 0.9721 -22.3863 58.7947)" style="fill:#C3C5D1;" width="58.018" height="2.054"/>
				
					<rect x="207.977" y="126.096" transform="matrix(0.9721 -0.2344 0.2344 0.9721 -23.1961 59.0948)" style="fill:#C3C5D1;" width="58.018" height="2.054"/>
				
					<rect x="208.835" y="129.652" transform="matrix(0.9721 -0.2344 0.2344 0.9721 -24.0059 59.395)" style="fill:#C3C5D1;" width="58.017" height="2.054"/>
				
					<rect x="209.693" y="133.208" transform="matrix(0.9721 -0.2344 0.2344 0.9721 -24.8156 59.695)" style="fill:#C3C5D1;" width="58.018" height="2.054"/>
				
					<rect x="210.55" y="136.765" transform="matrix(0.9721 -0.2344 0.2344 0.9721 -25.6253 59.9951)" style="fill:#C3C5D1;" width="58.018" height="2.054"/>
				
					<rect x="211.408" y="140.321" transform="matrix(0.9721 -0.2344 0.2344 0.9721 -26.4351 60.2952)" style="fill:#C3C5D1;" width="58.017" height="2.054"/>
				
					<rect x="212.265" y="143.877" transform="matrix(0.9721 -0.2344 0.2344 0.9721 -27.2448 60.5953)" style="fill:#C3C5D1;" width="58.018" height="2.054"/>
			</g>
			
				<ellipse transform="matrix(0.9701 -0.2429 0.2429 0.9701 -23.7427 72.079)" style="fill:#FF3304;" cx="280.445" cy="132.328" rx="15.551" ry="15.551"/>
			
				<text transform="matrix(0.9721 -0.2344 0.2344 0.9721 273.6976 143.1649)" style="fill:#FFFFFF; font-family:'WorkSans-Bold'; font-size:28.5177px;">5</text>
		</g>
		<g>
			<polygon style="fill:#FF9C4A;" points="168.792,213.365 194.471,237.673 142.068,236.52 			"/>
			<polygon style="fill:#F68425;" points="142.835,201.677 195.237,202.83 194.471,237.673 168.792,213.365 142.068,236.52 			"/>
			<polygon style="fill:#FF9C4A;" points="142.835,201.677 195.237,202.83 168.547,224.476 			"/>
			<g>
				<path style="fill:#002E5C;" d="M195.237,202.83c-8.82,7.31-17.736,14.501-26.601,21.756c-0.054,0.045-0.132,0.041-0.183-0.004
					c-8.538-7.637-17.129-15.214-25.618-22.905c8.652,7.508,17.202,15.131,25.806,22.694l-0.183-0.004
					C177.387,217.19,186.264,209.951,195.237,202.83z"/>
			</g>
		</g>
		<g>
			<polygon style="fill:#FF9C4A;" points="332.137,207.615 345.672,240.282 298.294,217.862 			"/>
			<polygon style="fill:#F68425;" points="313.202,186.359 360.58,208.78 345.672,240.282 332.137,207.615 298.294,217.862 			"/>
			<polygon style="fill:#FF9C4A;" points="313.202,186.359 360.58,208.78 327.382,217.662 			"/>
			<g>
				<path style="fill:#002E5C;" d="M360.58,208.78c-11.034,3.078-22.108,6.009-33.16,9.019c-0.068,0.018-0.138-0.016-0.165-0.078
					c-4.681-10.455-9.436-20.876-14.052-31.361c4.838,10.384,9.537,20.831,14.31,31.244l-0.165-0.078
					C338.425,214.613,349.482,211.623,360.58,208.78z"/>
			</g>
		</g>
		<g>
			<polygon style="fill:#FF9C4A;" points="167.096,175.294 185.427,177.235 163.357,193.344 			"/>
			<polygon style="fill:#F68425;" points="152.645,178.669 174.716,162.56 185.427,177.235 167.096,175.294 163.357,193.344 			"/>
			<polygon style="fill:#FF9C4A;" points="152.645,178.669 174.716,162.56 170.512,179.974 			"/>
			<g>
				<path style="fill:#002E5C;" d="M174.716,162.56c-1.283,5.833-2.714,11.631-4.066,17.447c-0.016,0.069-0.08,0.114-0.148,0.108
					c-5.952-0.485-11.91-0.889-17.857-1.446c5.964,0.313,11.918,0.779,17.877,1.164l-0.148,0.108
					C171.825,174.148,173.196,168.336,174.716,162.56z"/>
			</g>
		</g>
		<g>
			<polygon style="fill:#FF9C4A;" points="317.485,153.776 331.617,165.611 304.313,166.672 			"/>
			<polygon style="fill:#F68425;" points="303.608,148.517 330.911,147.456 331.617,165.611 317.485,153.776 304.313,166.672 			"/>
			<polygon style="fill:#FF9C4A;" points="303.608,148.517 330.911,147.456 317.71,159.565 			"/>
			<g>
				<path style="fill:#002E5C;" d="M330.911,147.456c-4.318,4.126-8.74,8.14-13.106,12.214c-0.051,0.048-0.13,0.05-0.183,0.007
					c-4.67-3.722-9.389-7.381-14.015-11.16c4.776,3.587,9.458,7.294,14.189,10.937l-0.183,0.007
					C322.049,155.462,326.429,151.403,330.911,147.456z"/>
			</g>
		</g>
		<rect x="169.333" y="291.372" style="fill:#ACAABD;" width="13.167" height="21.295"/>
		<g>
			<path style="fill:#F68616;" d="M297.229,312.04L297.229,312.04c-3.811,0-6.901-3.09-6.901-6.901V294.89h13.802v10.249
				C304.13,308.95,301.041,312.04,297.229,312.04z"/>
			<rect x="288.285" y="311.26" style="fill:#FF9D3B;" width="18.09" height="0.89"/>
			<polygon style="fill:#FF9D3B;" points="305.248,312.585 289.412,312.585 288.568,311.26 306.092,311.26 			"/>
			<path style="fill:none;stroke:#F68616;stroke-miterlimit:10;" d="M302.021,299.075c6.827-7.297,11.319,3.04,0.431,7.808"/>
		</g>
	</g>
</g>
<g id="DESIGNED_BY_FREEPIK">
	<g>
		<g id="XMLID_1_">
			<g id="XMLID_20_">
				<path id="XMLID_28_" style="fill:#1D262D;" d="M260.104,465.465c-0.432,0.443-0.803,0.931-1.108,1.453l-0.465-0.241
					c-0.067-0.298-0.349-0.503-0.659-0.466c-0.331,0.039-0.568,0.339-0.529,0.67s0.339,0.568,0.67,0.529
					c0.065-0.008,0.127-0.026,0.184-0.052l0.451,0.234c-0.251,0.554-0.433,1.139-0.539,1.744l0.746,0.132
					c0.23-1.306,0.85-2.507,1.792-3.473L260.104,465.465z"/>
				<path id="XMLID_27_" style="fill:#1D262D;" d="M265.592,463.163c-0.171,0-0.341,0.006-0.51,0.017l-0.074-0.626
					c0.188-0.149,0.296-0.389,0.266-0.645c-0.046-0.393-0.402-0.674-0.795-0.628s-0.674,0.402-0.628,0.795
					c0.03,0.254,0.189,0.461,0.405,0.564l0.073,0.624c-0.714,0.116-1.403,0.332-2.06,0.646l0.327,0.684
					c0.934-0.447,1.942-0.673,2.995-0.673c0.496,0,0.993,0.053,1.475,0.158l0.161-0.741
					C266.693,463.222,266.142,463.163,265.592,463.163z"/>
				<path id="XMLID_26_" style="fill:#1D262D;" d="M272.194,465.711c0.331-0.04,0.566-0.341,0.525-0.672
					c-0.04-0.331-0.341-0.566-0.672-0.526c-0.309,0.038-0.535,0.304-0.53,0.609l-0.416,0.363c-0.418-0.43-0.89-0.813-1.408-1.139
					l-0.404,0.641c1.134,0.715,2.021,1.726,2.563,2.925l0.691-0.313c-0.251-0.554-0.568-1.072-0.942-1.545l0.402-0.351
					C272.065,465.716,272.129,465.719,272.194,465.711z"/>
				<path id="XMLID_25_" style="fill:#1D262D;" d="M265.044,473.372c-0.386,0.023-0.775,0.035-1.157,0.035
					c-0.88,0-1.733-0.061-2.478-0.179c-0.39-0.062-0.846-0.155-1.27-0.292c1.046,1.861,3.069,3.125,5.388,3.125
					c2.855,0,5.262-1.916,5.95-4.504c-0.682,0.449-1.505,0.825-2.459,1.123C267.839,473.047,266.464,473.286,265.044,473.372z"/>
				<path id="XMLID_21_" style="fill:#1D262D;" d="M265.592,464.68c-3.352,0-6.08,2.666-6.08,5.943c0,0.426,0.046,0.849,0.137,1.261
					c0.674,0.483,2.706,0.89,5.348,0.731c2.879-0.173,5.297-0.957,6.672-2.159c-0.005-0.195-0.021-0.39-0.045-0.582
					C271.244,466.913,268.65,464.68,265.592,464.68z M263.432,471.194c-1.02,0-1.85-0.83-1.85-1.85c0-1.02,0.83-1.85,1.85-1.85
					c1.02,0,1.85,0.83,1.85,1.85C265.282,470.365,264.452,471.194,263.432,471.194z M268.17,470.286c-0.75,0-1.36-0.61-1.36-1.36
					s0.61-1.361,1.36-1.361c0.75,0,1.361,0.61,1.361,1.361S268.92,470.286,268.17,470.286z"/>
			</g>
			<path id="XMLID_18_" style="fill:#1D262D;" d="M281.595,466.547c-0.295-0.116-0.806-0.309-1.382-0.237
				c-0.551,0.069-0.844,0.341-0.844,1.007v0.866h2.228v1.717h-2.228v5.455h-1.932v-5.455h-1.34v-1.717h1.34v-0.888
				c0-1.68,0.896-2.783,2.568-2.783c0.642,0,1.157,0.122,1.59,0.308L281.595,466.547z"/>
			<path id="XMLID_16_" style="fill:#1D262D;" d="M286.298,469.879c-0.177-0.03-0.358-0.046-0.526-0.046
				c-0.896,0-1.51,0.548-1.51,1.614v3.908h-1.932v-7.172h1.873v0.785c0.451-0.673,1.14-0.977,2.021-0.977
				c0.414,0,0.848,0.128,1.094,0.337L286.298,469.879z"/>
			<path id="XMLID_13_" style="fill:#1D262D;" d="M293.965,471.757c0,0.222-0.015,0.489-0.037,0.651h-5.085
				c0.207,1.036,0.933,1.488,1.843,1.488c0.622,0,1.295-0.252,1.813-0.688l1.132,1.243c-0.814,0.748-1.85,1.088-3.057,1.088
				c-2.198,0-3.723-1.495-3.723-3.753c0-2.258,1.48-3.797,3.627-3.797C292.544,467.99,293.958,469.522,293.965,471.757z
				 M288.851,471.091h3.175c-0.177-0.918-0.733-1.436-1.562-1.436C289.554,469.655,289.021,470.203,288.851,471.091z"/>
			<path id="XMLID_10_" style="fill:#1D262D;" d="M301.618,471.757c0,0.222-0.015,0.489-0.037,0.651h-5.085
				c0.207,1.036,0.932,1.488,1.843,1.488c0.622,0,1.295-0.252,1.813-0.688l1.132,1.243c-0.814,0.748-1.85,1.088-3.057,1.088
				c-2.198,0-3.723-1.495-3.723-3.753c0-2.258,1.48-3.797,3.627-3.797C300.197,467.99,301.611,469.522,301.618,471.757z
				 M296.504,471.091h3.175c-0.178-0.918-0.733-1.436-1.562-1.436C297.207,469.655,296.674,470.203,296.504,471.091z"/>
			<path id="XMLID_7_" style="fill:#1D262D;" d="M309.964,471.764c0,2.154-1.495,3.775-3.471,3.775
				c-0.962,0-1.643-0.378-2.109-0.933v3.708h-1.924v-10.133h1.887v0.792c0.466-0.585,1.155-0.984,2.139-0.984
				C308.469,467.99,309.964,469.61,309.964,471.764z M304.287,471.764c0,1.132,0.747,1.976,1.843,1.976
				c1.14,0,1.85-0.881,1.85-1.976c0-1.095-0.71-1.976-1.85-1.976C305.035,469.788,304.287,470.632,304.287,471.764z"/>
			<path id="XMLID_4_" style="fill:#1D262D;" d="M313.068,465.836c0,0.696-0.54,1.229-1.236,1.229c-0.696,0-1.229-0.533-1.229-1.229
				c0-0.696,0.533-1.243,1.229-1.243C312.527,464.592,313.068,465.14,313.068,465.836z M312.809,475.354h-1.932v-7.172h1.932
				V475.354z"/>
			<path id="XMLID_2_" style="fill:#1D262D;" d="M316.032,470.736l2.702-2.554h2.368l-3.479,3.375l3.501,3.797h-2.376l-2.716-2.901
				v2.901H314.1v-10.658h1.932V470.736z"/>
		</g>
		<g>
			<path style="fill:#1D262D;" d="M184.412,475.289v-1.055c-0.527,0.718-1.391,1.23-2.387,1.23c-1.846,0-3.149-1.406-3.149-3.706
				c0-2.256,1.289-3.721,3.149-3.721c0.952,0,1.816,0.469,2.387,1.245v-3.765h1.099v9.77H184.412z M184.412,473.37v-3.208
				c-0.395-0.615-1.245-1.143-2.124-1.143c-1.421,0-2.27,1.172-2.27,2.739c0,1.567,0.85,2.724,2.27,2.724
				C183.168,474.483,184.017,473.986,184.412,473.37z"/>
			<path style="fill:#1D262D;" d="M186.932,471.744c0-2.051,1.465-3.706,3.486-3.706c2.139,0,3.398,1.67,3.398,3.794v0.279h-5.727
				c0.088,1.333,1.025,2.446,2.549,2.446c0.805,0,1.626-0.322,2.182-0.894l0.527,0.718c-0.703,0.703-1.655,1.084-2.812,1.084
				C188.44,475.465,186.932,473.956,186.932,471.744z M190.403,468.947c-1.509,0-2.256,1.274-2.314,2.358h4.643
				C192.718,470.25,192.015,468.947,190.403,468.947z"/>
			<path style="fill:#1D262D;" d="M194.607,474.351l0.571-0.791c0.469,0.542,1.362,1.011,2.329,1.011c1.084,0,1.67-0.513,1.67-1.216
				c0-1.714-4.38-0.659-4.38-3.281c0-1.098,0.952-2.036,2.636-2.036c1.201,0,2.051,0.454,2.622,1.026l-0.513,0.762
				c-0.424-0.513-1.201-0.894-2.109-0.894c-0.967,0-1.567,0.483-1.567,1.113c0,1.552,4.38,0.527,4.38,3.281
				c0,1.187-0.952,2.138-2.783,2.138C196.306,475.465,195.325,475.113,194.607,474.351z"/>
			<path style="fill:#1D262D;" d="M201.477,466.471c0-0.41,0.337-0.747,0.732-0.747c0.41,0,0.747,0.337,0.747,0.747
				c0,0.41-0.337,0.732-0.747,0.732C201.814,467.203,201.477,466.881,201.477,466.471z M201.667,475.289v-7.075h1.099v7.075H201.667
				z"/>
			<path style="fill:#1D262D;" d="M204.582,477.105l0.556-0.82c0.586,0.703,1.289,0.967,2.3,0.967c1.172,0,2.27-0.571,2.27-2.124
				v-1.011c-0.513,0.718-1.377,1.26-2.373,1.26c-1.845,0-3.149-1.377-3.149-3.662c0-2.27,1.289-3.677,3.149-3.677
				c0.952,0,1.802,0.469,2.373,1.245v-1.069h1.098v6.87c0,2.344-1.641,3.076-3.369,3.076
				C206.237,478.16,205.417,477.926,204.582,477.105z M209.709,473.253v-3.091c-0.381-0.615-1.23-1.143-2.109-1.143
				c-1.421,0-2.27,1.128-2.27,2.695c0,1.553,0.849,2.695,2.27,2.695C208.478,474.41,209.328,473.868,209.709,473.253z"/>
			<path style="fill:#1D262D;" d="M217.413,475.289v-4.629c0-1.245-0.63-1.641-1.582-1.641c-0.865,0-1.685,0.527-2.095,1.099v5.17
				h-1.099v-7.075h1.099v1.025c0.498-0.586,1.464-1.201,2.519-1.201c1.48,0,2.256,0.747,2.256,2.285v4.966H217.413z"/>
			<path style="fill:#1D262D;" d="M219.932,471.744c0-2.051,1.465-3.706,3.486-3.706c2.139,0,3.398,1.67,3.398,3.794v0.279h-5.727
				c0.088,1.333,1.025,2.446,2.549,2.446c0.806,0,1.626-0.322,2.183-0.894l0.527,0.718c-0.703,0.703-1.655,1.084-2.812,1.084
				C221.441,475.465,219.932,473.956,219.932,471.744z M223.404,468.947c-1.509,0-2.256,1.274-2.314,2.358h4.643
				C225.718,470.25,225.015,468.947,223.404,468.947z"/>
			<path style="fill:#1D262D;" d="M233.35,475.289v-1.055c-0.527,0.718-1.392,1.23-2.388,1.23c-1.846,0-3.149-1.406-3.149-3.706
				c0-2.256,1.289-3.721,3.149-3.721c0.952,0,1.817,0.469,2.388,1.245v-3.765h1.098v9.77H233.35z M233.35,473.37v-3.208
				c-0.396-0.615-1.245-1.143-2.124-1.143c-1.421,0-2.27,1.172-2.27,2.739c0,1.567,0.849,2.724,2.27,2.724
				C232.105,474.483,232.954,473.986,233.35,473.37z"/>
			<path style="fill:#1D262D;" d="M239.692,475.289v-9.77h1.098v3.765c0.572-0.776,1.421-1.245,2.388-1.245
				c1.845,0,3.149,1.465,3.149,3.721c0,2.299-1.304,3.706-3.149,3.706c-0.996,0-1.86-0.513-2.388-1.23v1.055H239.692z
				 M242.9,474.483c1.436,0,2.285-1.157,2.285-2.724c0-1.568-0.85-2.739-2.285-2.739c-0.864,0-1.728,0.527-2.109,1.143v3.208
				C241.171,473.986,242.036,474.483,242.9,474.483z"/>
			<path style="fill:#1D262D;" d="M247.528,477.061c0.161,0.073,0.425,0.117,0.601,0.117c0.483,0,0.805-0.161,1.055-0.747
				l0.469-1.069l-2.959-7.148h1.187l2.358,5.8l2.344-5.8h1.201l-3.545,8.51c-0.425,1.025-1.143,1.421-2.08,1.435
				c-0.234,0-0.601-0.044-0.805-0.103L247.528,477.061z"/>
		</g>
	</g>
</g>
</svg>
